{"accessors":[{"bufferView":0,"byteOffset":0,"componentType":5126,"count":120,"max":[11.5,1.5,8.0],"min":[-11.5,-1.5,-8.0],"normalized":false,"type":"VEC3"},{"bufferView":1,"byteOffset":0,"componentType":5126,"count":120,"max":[0.0,0.0,1.0,1.0],"min":[-1.0,-1.0,-1.0,-1.0],"normalized":false,"type":"VEC4"},{"bufferView":2,"byteOffset":0,"componentType":5126,"count":120,"max":[1.0,1.0,1.0],"min":[-1.0,-1.0,-1.0],"normalized":false,"type":"VEC3"},{"bufferView":3,"byteOffset":0,"componentType":5126,"count":120,"max":[1.0,1.0],"min":[0.0,0.0],"normalized":false,"type":"VEC2"},{"bufferView":4,"byteOffset":0,"componentType":5123,"count":120,"max":[119.0],"min":[0.0],"normalized":false,"type":"SCALAR"},{"bufferView":5,"byteOffset":0,"componentType":5126,"count":36,"max":[6.69999980926514,1.5,5.30000019073486],"min":[2.09999942779541,-1.5,-5.30000019073486],"normalized":false,"type":"VEC3"},{"bufferView":6,"byteOffset":0,"componentType":5126,"count":36,"max":[0.0,0.0,0.0000763009302318096,1.0],"min":[-1.0,-1.0,-1.0,-1.0],"normalized":false,"type":"VEC4"},{"bufferView":7,"byteOffset":0,"componentType":5126,"count":36,"max":[1.0,1.0,1.0],"min":[-1.0,-1.0,-1.0],"normalized":false,"type":"VEC3"},{"bufferView":8,"byteOffset":0,"componentType":5126,"count":36,"max":[1.0,1.0],"min":[0.0,0.0],"normalized":false,"type":"VEC2"},{"bufferView":9,"byteOffset":0,"componentType":5123,"count":36,"max":[35.0],"min":[0.0],"normalized":false,"type":"SCALAR"},{"bufferView":10,"byteOffset":0,"componentType":5126,"count":96,"max":[13.3500003814697,1.5,9.85000038146973],"min":[-13.3500003814697,-1.5,-9.85000038146973],"normalized":false,"type":"VEC3"},{"bufferView":11,"byteOffset":0,"componentType":5126,"count":96,"max":[0.0,0.0,0.0000763009302318096,1.0],"min":[-1.0,-1.0,-1.0,-1.0],"normalized":false,"type":"VEC4"},{"bufferView":12,"byteOffset":0,"componentType":5126,"count":96,"max":[1.0,1.0,1.0],"min":[-1.0,-1.0,-1.0],"normalized":false,"type":"VEC3"},{"bufferView":13,"byteOffset":0,"componentType":5126,"count":96,"max":[1.0,1.0],"min":[0.0,0.0],"normalized":false,"type":"VEC2"},{"bufferView":14,"byteOffset":0,"componentType":5123,"count":96,"max":[95.0],"min":[0.0],"normalized":false,"type":"SCALAR"},{"bufferView":15,"byteOffset":0,"componentType":5126,"count":36,"max":[5.0,1.5,-1.5],"min":[-5.0,-1.5,-15.5],"normalized":false,"type":"VEC3"},{"bufferView":16,"byteOffset":0,"componentType":5126,"count":36,"max":[0.0,0.0,0.0000763009302318096,1.0],"min":[-1.0,-1.0,-1.0,-1.0],"normalized":false,"type":"VEC4"},{"bufferView":17,"byteOffset":0,"componentType":5126,"count":36,"max":[1.0,1.0,1.0],"min":[-1.0,-1.0,-1.0],"normalized":false,"type":"VEC3"},{"bufferView":18,"byteOffset":0,"componentType":5126,"count":36,"max":[1.0,1.0],"min":[0.0,0.0],"normalized":false,"type":"VEC2"},{"bufferView":19,"byteOffset":0,"componentType":5123,"count":36,"max":[35.0],"min":[0.0],"normalized":false,"type":"SCALAR"},{"bufferView":20,"byteOffset":0,"componentType":5126,"count":522,"max":[28.3000030517578,4.5,5.84999990463257],"min":[-36.0,-1.5,-32.25],"normalized":false,"type":"VEC3"},{"bufferView":21,"byteOffset":0,"componentType":5126,"count":522,"max":[1.0,0.0,1.0,1.0],"min":[-1.0,-1.0,-1.0,1.0],"normalized":false,"type":"VEC4"},{"bufferView":22,"byteOffset":0,"componentType":5126,"count":522,"max":[1.0,1.0,1.0],"min":[-1.0,-1.0,-1.0],"normalized":false,"type":"VEC3"},{"bufferView":23,"byteOffset":0,"componentType":5126,"count":522,"max":[1.0,1.0],"min":[0.0,0.0],"normalized":false,"type":"VEC2"},{"bufferView":24,"byteOffset":0,"componentType":5123,"count":522,"max":[521.0],"min":[0.0],"normalized":false,"type":"SCALAR"}],"asset":{"generator":"Godot Engine v4.4.1.stable.official@49a5bc7b616bd04689a2c89e89bda41f50241464","version":"2.0"},"bufferViews":[{"buffer":0,"byteLength":1440,"byteOffset":0,"byteStride":12,"target":34962},{"buffer":0,"byteLength":1920,"byteOffset":1440,"byteStride":16,"target":34962},{"buffer":0,"byteLength":1440,"byteOffset":3360,"byteStride":12,"target":34962},{"buffer":0,"byteLength":960,"byteOffset":4800,"byteStride":8,"target":34962},{"buffer":0,"byteLength":240,"byteOffset":5760,"target":34963},{"buffer":0,"byteLength":432,"byteOffset":6000,"byteStride":12,"target":34962},{"buffer":0,"byteLength":576,"byteOffset":6432,"byteStride":16,"target":34962},{"buffer":0,"byteLength":432,"byteOffset":7008,"byteStride":12,"target":34962},{"buffer":0,"byteLength":288,"byteOffset":7440,"byteStride":8,"target":34962},{"buffer":0,"byteLength":72,"byteOffset":7728,"target":34963},{"buffer":0,"byteLength":1152,"byteOffset":7800,"byteStride":12,"target":34962},{"buffer":0,"byteLength":1536,"byteOffset":8952,"byteStride":16,"target":34962},{"buffer":0,"byteLength":1152,"byteOffset":10488,"byteStride":12,"target":34962},{"buffer":0,"byteLength":768,"byteOffset":11640,"byteStride":8,"target":34962},{"buffer":0,"byteLength":192,"byteOffset":12408,"target":34963},{"buffer":0,"byteLength":432,"byteOffset":12600,"byteStride":12,"target":34962},{"buffer":0,"byteLength":576,"byteOffset":13032,"byteStride":16,"target":34962},{"buffer":0,"byteLength":432,"byteOffset":13608,"byteStride":12,"target":34962},{"buffer":0,"byteLength":288,"byteOffset":14040,"byteStride":8,"target":34962},{"buffer":0,"byteLength":72,"byteOffset":14328,"target":34963},{"buffer":0,"byteLength":6264,"byteOffset":14400,"byteStride":12,"target":34962},{"buffer":0,"byteLength":8352,"byteOffset":20664,"byteStride":16,"target":34962},{"buffer":0,"byteLength":6264,"byteOffset":29016,"byteStride":12,"target":34962},{"buffer":0,"byteLength":4176,"byteOffset":35280,"byteStride":8,"target":34962},{"buffer":0,"byteLength":1044,"byteOffset":39456,"target":34963}],"buffers":[{"byteLength":40500,"uri":"main_level0.bin"}],"extensions":{"KHR_lights_punctual":{"lights":[{"type":"directional"}]}},"extensionsUsed":["GODOT_single_root","KHR_lights_punctual"],"images":[{"uri":"textures%2F_albedo000.png"}],"materials":[{"extensions":{},"pbrMetallicRoughness":{"baseColorFactor":[1.0,1.0,1.0,1.0],"baseColorTexture":{"index":0},"metallicFactor":0.0,"roughnessFactor":1.0}}],"meshes":[{"extras":{"targetNames":[]},"primitives":[{"attributes":{"NORMAL":2,"POSITION":0,"TANGENT":1,"TEXCOORD_0":3},"indices":4,"material":0,"mode":4}]},{"extras":{"targetNames":[]},"primitives":[{"attributes":{"NORMAL":7,"POSITION":5,"TANGENT":6,"TEXCOORD_0":8},"indices":9,"material":0,"mode":4}]},{"extras":{"targetNames":[]},"primitives":[{"attributes":{"NORMAL":12,"POSITION":10,"TANGENT":11,"TEXCOORD_0":13},"indices":14,"material":0,"mode":4}]},{"extras":{"targetNames":[]},"primitives":[{"attributes":{"NORMAL":17,"POSITION":15,"TANGENT":16,"TEXCOORD_0":18},"indices":19,"material":0,"mode":4}]},{"extras":{"targetNames":[]},"primitives":[{"attributes":{"NORMAL":22,"POSITION":20,"TANGENT":21,"TEXCOORD_0":23},"indices":24,"material":0,"mode":4}]}],"nodes":[{"children":[1,2,3,6,8,10,12,23],"name":"MainLevel"},{"name":"WorldEnvironment"},{"extensions":{"KHR_lights_punctual":{"light":0}},"name":"DirectionalLight3D","rotation":[-0.129410728812218,0.836515307426453,0.482963681221008,0.22414530813694]},{"children":[4,5],"mesh":0,"name":"Overhang2","translation":[-20.2999992370605,1.5,11.1000003814697]},{"name":"Overhang22","translation":[4.0,0.0,5.0]},{"name":"Corridor6","rotation":[0.0,0.70710676908493,0.0,0.70710676908493],"translation":[-5.0,-0.25,-6.64999961853027]},{"children":[7],"mesh":1,"name":"Overhang24","translation":[-25.1000003814697,1.5,-4.59999990463257]},{"name":"Overhang3","translation":[-4.60000038146973,0.0,0.0]},{"children":[9],"mesh":2,"name":"Overhang33","translation":[1.54999995231628,1.5,-9.14999961853027]},{"name":"Overhang4","translation":[-0.350000381469727,0.0,0.350000381469727]},{"children":[11],"mesh":3,"name":"Overhang43","translation":[27.5,1.5,-0.800000011920929]},{"name":"Overhang5","translation":[0.0,0.0,14.0]},{"children":[13],"mesh":4,"name":"Room2","translation":[4.19999980926514,1.5,13.25]},{"children":[14,15,16,17,18,19,20,21,22],"name":"CSGCombiner3D"},{"name":"Room22","translation":[-24.5,1.5,-2.15000009536743]},{"name":"Corridor","translation":[-9.49999904632568,-0.25,0.200000762939453]},{"name":"Corridor2","rotation":[0.0,0.70710676908493,0.0,0.70710676908493],"translation":[-29.5,-0.25,-11.7999992370605]},{"name":"Corridor3","translation":[-19.5,2.75,-17.7999992370605]},{"name":"Corridor4","rotation":[0.0,-0.70710676908493,0.0,0.70710676908493],"translation":[-11.5,2.75,-9.79999923706055]},{"name":"Corridor5","translation":[14.5000009536743,2.75,-23.7999992370605]},{"name":"Room3","translation":[-29.2999992370605,1.5,-17.8499984741211]},{"name":"Room4","translation":[-2.64999866485596,1.5,-22.3999977111816]},{"name":"Room5","translation":[23.3000030517578,1.5,-14.0499973297119]},{"name":"Sprite3D","scale":[2.39999985694885,2.39999985694885,2.39999985694885],"translation":[0.0,0.100000023841858,0.0]}],"samplers":[{"magFilter":9729,"minFilter":9987,"wrapS":10497,"wrapT":10497}],"scene":0,"scenes":[{"nodes":[0]}],"textures":[{"sampler":0,"source":0}]}